# xmcd
#
# Track frame offsets:
#	150
#	16802
#	35821
#	49868
#	66414
#	82004
#	95545
#	109859
#	128750
#	150752
#	168203
#	183529
#	197485
#	215511
#	229990
#	245855
#	262916
#
# Disc length: 3706 seconds
#
# Revision: 0
# Processed by: cddbd v1.5.2PL0 Copyright (c) Steve Scherf et al.
# Submitted via: audiograbber 1.81.02
#
DISCID=e90e7811
DTITLE=Dean John2002 - Always On My Mind CD1
DYEAR=2002
DGENRE=Rock and Roll
TTITLE0=Don't Be Cruel/Teddy Bear
TTITLE1=Suspicious minds
TTITLE2=Fool Such As I
TTITLE3=One Night
TTITLE4=Crying In The Chapel
TTITLE5=Jailhouse Rock
TTITLE6=Maries The Name
TTITLE7=It's Now Or Never
TTITLE8=Always On My Mind
TTITLE9=Polk Salad Annie
TTITLE10=Wonder Of You
TTITLE11=Suspicion
TTITLE12=Moody Blue
TTITLE13=I Need Your Love Tonight
TTITLE14=Guitar Man
TTITLE15=Ring Around Neck/blue Moon Of Kentucky 
TTITLE16=Are you Lonesome Tonight
EXTD=
EXTT0=
EXTT1=
EXTT2=
EXTT3=
EXTT4=
EXTT5=
EXTT6=
EXTT7=
EXTT8=
EXTT9=
EXTT10=
EXTT11=
EXTT12=
EXTT13=
EXTT14=
EXTT15=
EXTT16=
PLAYORDER=
